HIERARCHY
ROOT Hips
{
  OFFSET 0 0 0
  CHANNELS 6 Xposition Yposition Zposition Zrotation Xrotation Yrotation
  JOINT Spine
  {
    OFFSET 0.00000000 0.00000000 0.00000000
    CHANNELS 3 Zrotation Xrotation Yrotation
    JOINT Spine1
    {
      OFFSET 0.19000000 0.00000000 0.00000000
      CHANNELS 3 Zrotation Xrotation Yrotation
      JOINT Neck
      {
        OFFSET 0.22500000 0.00600000 0.00000000
        CHANNELS 3 Zrotation Xrotation Yrotation
        JOINT Head
        {
          OFFSET 0.14000000 0.00030878 0.00000000
          CHANNELS 3 Zrotation Xrotation Yrotation
          End Site
          {
            OFFSET 0.17000000 0.00000000 0.00000000
          }
        }
      }
      JOINT LeftShoulder
      {
        OFFSET 0.19800000 0.03700000 0.04300000
        CHANNELS 3 Zrotation Xrotation Yrotation
        JOINT LeftArm
        {
          OFFSET 0.08000000 0.00000000 0.00000000
          CHANNELS 3 Zrotation Xrotation Yrotation
          JOINT LeftForeArm
          {
            OFFSET 0.15200000 0.00000000 0.00000000
            CHANNELS 3 Zrotation Xrotation Yrotation
            JOINT LeftHand
            {
              OFFSET 0.17800000 0.00000000 0.00000000
              CHANNELS 3 Zrotation Xrotation Yrotation
              End Site
              {
                OFFSET 0.07200000 0.00000000 0.00000000
              }
            }
          }
        }
      }
      JOINT RightShoulder
      {
        OFFSET 0.19800000 0.03700000 -0.04300000
        CHANNELS 3 Zrotation Xrotation Yrotation
        JOINT RightArm
        {
          OFFSET 0.08000000 0.00000000 0.00151654
          CHANNELS 3 Zrotation Xrotation Yrotation
          JOINT RightForeArm
          {
            OFFSET 0.15200000 0.00000000 0.00000000
            CHANNELS 3 Zrotation Xrotation Yrotation
            JOINT RightHand
            {
              OFFSET 0.17800000 0.00000000 0.00000000
              CHANNELS 3 Zrotation Xrotation Yrotation
              End Site
              {
                OFFSET 0.07200000 0.00000000 0.00000000
              }
            }
          }
        }
      }
    }
  }
  JOINT LeftUpLeg
  {
    OFFSET 0.05984250 -0.07666000 0.04788790
    CHANNELS 3 Zrotation Xrotation Yrotation
    JOINT LeftLeg
    {
      OFFSET 0.16000000 0.00000000 0.00000000
      CHANNELS 3 Zrotation Xrotation Yrotation
      JOINT LeftFoot
      {
        OFFSET 0.18000000 0.00000000 0.00000000
        CHANNELS 3 Zrotation Xrotation Yrotation
        End Site
        {
          OFFSET 0.00000000 -0.10800000 0.00000000
        }
      }
    }
  }
  JOINT RightUpLeg
  {
    OFFSET 0.05984250 -0.07665980 -0.04788790
    CHANNELS 3 Zrotation Xrotation Yrotation
    JOINT RightLeg
    {
      OFFSET 0.16000000 0.00000000 0.00000000
      CHANNELS 3 Zrotation Xrotation Yrotation
      JOINT RightFoot
      {
        OFFSET 0.18000000 0.00000000 0.00000000
        CHANNELS 3 Zrotation Xrotation Yrotation
        End Site
        {
          OFFSET 0.00000000 -0.10800000 0.00000000
        }
      }
    }
  }
  JOINT Tail
  {
    OFFSET 0.06836960 -0.00722574 0.00000000
    CHANNELS 3 Zrotation Xrotation Yrotation
    JOINT Tail1
    {
      OFFSET 0.12000000 0.00000000 0.00000000
      CHANNELS 3 Zrotation Xrotation Yrotation
      End Site
      {
        OFFSET 0.12000000 0.00000000 0.00000000
      }
    }
  }
}
MOTION
Frames:	10
Frame Time:	0.0166667
0.0000000 0.0851331 0.0000000 -99.8171 -0.03684 0.21291 -125.152 -0.296415 -5.00719 -0.360486 3.26003 -2.4226 5.02811 4.24598 -8.35628 -147.747 84.5024 172.601 -109.555 -36.5201 -136.018 70.3808 -63.6294 -168.282 -79.5297 4.2585 4.23573 4.24726 0.62636 -14.6204 75.9005 -30.2303 47.2822 125.805 -69.6968 17.4737 -83.5101 -13.918 -0.296574 8.49484 -0.0850989 -3.84716 -135.659 50.8035 -3.4734 165.454 54.0138 -1.20973 -22.3963 -0.41848 24.1471 -130.124 -39.2796 8.00565 161.327 -33.3012 -4.15344 -20.6646 -5.41162 -20.5792 81.2931 20.9952 -6.81541 14.4822 -19.235 11.4499 
-0.0001151 0.0851877 -0.0001630 -99.7567 -0.10399 0.20405 -125.057 -0.30725 -4.90742 -0.562021 3.23177 -2.57777 4.67999 3.88539 -8.00978 -142.638 84.3151 167.692 -109.628 -36.6275 -136.013 70.1015 -63.8009 -168.522 -79.4971 4.54419 4.19547 3.98667 0.649622 -14.6184 75.8702 -30.2268 47.1662 126.186 -69.6586 17.6654 -83.5236 -13.9672 -0.274039 8.36616 -0.0797147 -3.68805 -135.965 50.8278 -3.30968 165.468 53.9722 -1.21587 -22.2487 -0.372119 24.253 -130.24 -39.2533 8.03612 161.313 -32.8954 -4.13089 -20.4725 -5.43456 -20.4387 81.2411 21.0448 -6.91426 14.5188 -19.2523 11.4922 
0.0000338 0.0852106 -0.0002639 -99.8599 -0.15850 0.22480 -124.683 -0.340338 -4.82172 -0.960457 3.20711 -2.71643 4.47725 3.41314 -7.59541 -136.067 83.8771 160.511 -109.685 -36.7385 -135.955 69.6476 -64.0854 -168.895 -79.5998 4.55081 4.0731 4.24626 0.61884 -14.5249 75.9092 -30.098 47.0086 126.605 -69.4823 17.8671 -83.6155 -14.042 -0.204056 8.35309 -0.080332 -3.56806 -135.885 50.8376 -3.40041 165.425 54.0252 -1.20769 -22.0666 -0.335334 24.1678 -130.033 -38.8754 8.25068 161.251 -32.3017 -4.09487 -20.4615 -5.40873 -20.105 81.3434 21.0667 -6.99871 14.5455 -19.2783 11.5334 
0.0000631 0.0854030 -0.0002248 -99.8278 -0.15702 0.21648 -124.633 -0.390233 -4.82036 -1.06928 3.18134 -2.81268 4.44072 2.89991 -7.21936 -130.238 83.2617 153.326 -109.733 -36.8296 -135.911 69.5465 -64.2538 -169.023 -79.5708 4.55275 4.01579 4.39688 0.591978 -14.383 75.963 -29.9658 46.895 126.302 -69.2388 17.3325 -83.5516 -14.1628 -0.109171 8.32713 -0.0764187 -3.61096 -135.667 50.6789 -3.66725 165.411 53.9573 -1.21606 -22.0912 -0.361105 23.9569 -130.342 -38.607 8.32173 161.274 -31.7141 -4.05414 -20.1893 -5.44735 -19.9032 81.278 21.1113 -6.99515 14.5621 -19.3131 11.5539 
0.0000797 0.0855207 -0.0002014 -99.7826 -0.11100 0.24946 -124.719 -0.377282 -4.85398 -1.01461 3.21363 -2.833 4.32846 2.39289 -6.84692 -126.035 82.8289 148.329 -109.748 -36.851 -135.91 69.7519 -64.2838 -168.881 -79.503 4.53361 4.03269 4.35404 0.598333 -14.4023 75.9666 -29.9459 46.8616 125.95 -69.1195 16.9259 -83.4841 -14.1791 -0.106109 8.31173 -0.0725027 -3.70289 -135.464 50.6547 -3.90022 165.365 53.9458 -1.21806 -22.1751 -0.39724 23.8151 -130.325 -38.4806 8.31142 161.24 -31.6652 -4.05065 -20.2333 -5.43247 -19.8464 81.1703 21.1228 -6.9439 14.595 -19.3602 11.5784 
0.0000101 0.0854159 -0.0002834 -99.8155 -0.10520 0.22813 -124.796 -0.369237 -4.99897 -0.934015 3.26671 -2.65825 4.28098 1.85093 -6.5716 -122.274 82.3994 143.98 -109.705 -36.7505 -135.985 70.0895 -64.2284 -168.588 -79.4586 4.4684 4.04213 4.36263 0.595581 -14.4226 75.9751 -29.9575 46.9189 126.025 -69.122 17.2187 -83.501 -14.1264 -0.146639 8.34929 -0.0723563 -3.7558 -135.388 50.8322 -3.80589 165.351 54.1489 -1.21183 -22.2964 -0.411997 23.9214 -130.02 -38.5408 8.42057 161.14 -31.7721 -4.07411 -20.4893 -5.38429 -19.7905 81.2058 21.1386 -6.94346 14.5733 -19.359 11.5783 
-0.0000850 0.0854115 -0.0002205 -99.8086 -0.11356 0.20366 -125.025 -0.361863 -5.17847 -0.699612 3.30801 -2.39206 4.26706 1.27319 -6.29735 -118.903 81.9991 140.037 -109.667 -36.6541 -136.066 70.7128 -64.243 -168.017 -79.2941 4.40283 3.93481 4.52453 0.576734 -14.3407 76.002 -29.9482 46.9942 125.8 -69.1078 17.3678 -83.4512 -13.9924 -0.22955 8.40962 -0.0731871 -3.79747 -135.39 50.8846 -3.68415 165.376 54.2455 -1.2056 -22.4414 -0.435844 24.0226 -129.935 -38.574 8.54218 161.134 -31.8521 -4.08241 -20.5617 -5.37674 -19.8012 81.2213 21.1429 -6.95356 14.543 -19.3367 11.5267 
-0.0001236 0.0855280 -0.0000241 -99.7562 -0.07870 0.23271 -125.343 -0.340387 -5.35773 -0.360221 3.35502 -2.11982 4.22088 0.812012 -6.07774 -116.433 81.5056 136.994 -109.636 -36.5929 -136.1 71.4012 -64.2214 -167.344 -79.0928 4.48881 3.82259 4.48703 0.579814 -14.2868 76.0151 -29.9522 47.0506 125.181 -69.0537 17.1001 -83.3236 -13.866 -0.330355 8.44349 -0.0711275 -3.88813 -135.315 50.8996 -3.74501 165.391 54.2619 -1.1987 -22.5683 -0.468415 24.0125 -130.134 -38.5799 8.5359 161.216 -31.9426 -4.07181 -20.4012 -5.41675 -19.9177 81.1657 21.1053 -6.9378 14.5233 -19.3267 11.4802 
-0.0000738 0.0854388 -0.0000680 -99.8081 -0.04378 0.28554 -125.426 -0.311547 -5.47527 -0.208882 3.41185 -1.95006 4.1791 0.409817 -5.88584 -114.408 80.8938 134.578 -109.601 -36.5153 -136.153 71.7045 -64.1231 -167.044 -79.0445 4.62381 3.78432 4.3865 0.575419 -14.1492 76.0031 -29.9961 47.1096 125.028 -69.143 17.2345 -83.2924 -13.802 -0.395679 8.52188 -0.0677427 -3.97421 -134.8 50.6126 -4.32322 165.34 54.0037 -1.20121 -22.7018 -0.545193 23.6809 -130.105 -38.4377 8.51017 161.218 -31.8703 -4.06483 -20.3985 -5.41652 -19.8726 81.2263 21.0163 -6.88194 14.4949 -19.3057 11.4438 
-0.0001330 0.0851156 -0.0001690 -99.9248 -0.08727 0.27299 -125.35 -0.321688 -5.53031 -0.212261 3.41762 -1.84792 4.20058 -0.0873465 -5.59844 -112.351 80.3153 132.073 -109.583 -36.4628 -136.205 71.6905 -64.1309 -167.03 -79.0921 4.59735 3.76665 4.44743 0.570533 -14.1658 75.998 -30.0536 47.2242 125.437 -69.3557 17.9261 -83.3442 -13.7635 -0.458786 8.52885 -0.0641204 -4.00463 -135.018 50.8037 -3.96347 165.378 54.1058 -1.19894 -22.6429 -0.502381 23.942 -129.835 -38.5688 8.47418 161.168 -31.8412 -4.07979 -20.6688 -5.37629 -19.8603 81.4323 20.9408 -6.89953 14.4335 -19.2305 11.3953 
